HIERARCHY
ROOT Hips
{
  OFFSET 51.5423 53.584 -1.9029
  CHANNELS 6 Xposition Yposition Zposition Zrotation Xrotation Yrotation
  JOINT spine
  {
    OFFSET 0 6.84637 0.3937
    CHANNELS 3 Zrotation Xrotation Yrotation
    JOINT spine1
    {
      OFFSET 0 9.49621 0
      CHANNELS 3 Zrotation Xrotation Yrotation
      JOINT spine2
      {
        OFFSET 0 9.09909 0
        CHANNELS 3 Zrotation Xrotation Yrotation
        JOINT Neck
        {
          OFFSET 0 23.3612 1.11378
          CHANNELS 3 Zrotation Xrotation Yrotation
          JOINT Head
          {
            OFFSET 0 7.05802 0
            CHANNELS 3 Zrotation Xrotation Yrotation
            End Site
            {
              OFFSET 0 17.0844 -5.63419
            }
          }
        }
        JOINT RightShoulder
        {
          OFFSET -3.83136 9.82631 -0.533491
          CHANNELS 3 Zrotation Xrotation Yrotation
          JOINT RightArm
          {
            OFFSET 0 12.8881 0
            CHANNELS 3 Zrotation Xrotation Yrotation
            JOINT RightArmRoll
            {
              OFFSET 0 6.50617 0
              CHANNELS 3 Zrotation Xrotation Yrotation
              JOINT RightForeArm
              {
                OFFSET 0 18.9501 0
                CHANNELS 3 Zrotation Xrotation Yrotation
                JOINT RightForeArmRoll
                {
                  OFFSET 0 7.30093 0
                  CHANNELS 3 Zrotation Xrotation Yrotation
                  JOINT RightHand
                  {
                    OFFSET 0 14.6514 0
                    CHANNELS 3 Zrotation Xrotation Yrotation
                    End Site
                    {
                      OFFSET 0 0 0
                    }
                  }
                }
              }
            }
          }
        }
        JOINT LeftShoulder
        {
          OFFSET 3.83136 9.82631 -0.533491
          CHANNELS 3 Zrotation Xrotation Yrotation
          JOINT LeftArm
          {
            OFFSET 0 12.8881 0
            CHANNELS 3 Zrotation Xrotation Yrotation
            JOINT LeftArmRoll
            {
              OFFSET 0 6.50617 0
              CHANNELS 3 Zrotation Xrotation Yrotation
              JOINT LeftForeArm
              {
                OFFSET 0 18.9501 0
                CHANNELS 3 Zrotation Xrotation Yrotation
                JOINT LeftForeArmRoll
                {
                  OFFSET 0 7.30093 0
                  CHANNELS 3 Zrotation Xrotation Yrotation
                  JOINT LeftHand
                  {
                    OFFSET 0 14.6514 0
                    CHANNELS 3 Zrotation Xrotation Yrotation
                    End Site
                    {
                      OFFSET 0 0 0
                    }
                  }
                }
              }
            }
          }
        }
      }
    }
  }
  JOINT RightUpLeg
  {
    OFFSET -6.06837 -1.11278 -0.933477
    CHANNELS 3 Zrotation Xrotation Yrotation
    JOINT RightUpLegRoll
    {
      OFFSET 0 17.1796 0
      CHANNELS 3 Zrotation Xrotation Yrotation
      JOINT RightLeg
      {
        OFFSET 0 -21.2743 0
        CHANNELS 3 Zrotation Xrotation Yrotation
        JOINT RightLegRoll
        {
          OFFSET 0 21.3439 0
          CHANNELS 3 Zrotation Xrotation Yrotation
          JOINT RightFoot
          {
            OFFSET 0 17.7652 0
            CHANNELS 3 Zrotation Xrotation Yrotation
            JOINT RightToeBase
            {
              OFFSET 0 14.8508 0
              CHANNELS 3 Zrotation Xrotation Yrotation
              End Site
              {
                OFFSET 0.0062947 7.19214 -0.829005
              }
            }
          }
        }
      }
    }
  }
  JOINT LeftUpLeg
  {
    OFFSET 6.06837 -1.11278 -0.933477
    CHANNELS 3 Zrotation Xrotation Yrotation
    JOINT LeftUpLegRoll
    {
      OFFSET 0 17.1797 0
      CHANNELS 3 Zrotation Xrotation Yrotation
      JOINT LeftLeg
      {
        OFFSET 0 21.2742 0
        CHANNELS 3 Zrotation Xrotation Yrotation
        JOINT LeftLegRoll
        {
          OFFSET 0 21.5412 0
          CHANNELS 3 Zrotation Xrotation Yrotation
          JOINT LeftFoot
          {
            OFFSET 0 17.5679 0
            CHANNELS 3 Zrotation Xrotation Yrotation
            JOINT LeftToeBase
            {
              OFFSET 0 14.8508 0
              CHANNELS 3 Zrotation Xrotation Yrotation
              End Site
              {
                OFFSET -0.0282102 7.19214 -0.829005
              }
            }
          }
        }
      }
    }
  }
}
MOTION
Frames: 11
Frame Time: 0.00208333
50.0557 87.0892 30.4504 1.13409 1.89132 -4.10811 1.30518 -1.99298 1.15989 2.62698 0.0410875 2.19533 2.6016 1.68467 2.15199 -14.4198 9.63608 0.0787249 12.0775 11.4409 -4.02147 51.4736 -7.20351 -4.16068 118.823 42.4642 -16.4116 1.3918e-006 4.07791e-007 -4.43267e-006 25.2871 1.41932 1.24548 1.46028e-005 7.02981e-006 -3.00888 8.0301 -4.9514 0.697719 -75.1884 -7.70461 5.23771 -102.439 44.7713 -1.50599 -1.72063e-006 2.28825e-007 3.51245e-006 -27.2437 0.191545 -0.877231 2.17448e-006 8.25562e-006 3.03795 -8.03035 -4.95137 -0.697722 174.309 16.8847 0.680586 180 7.01601e-015 179.19 176.399 18.8999 179.998 -2.95271e-007 -4.48079e-006 0.205952 -16.4957 67.6068 19.2213 8.13649 25.2327 -3.48773 -177.4 12.7644 0.106424 -1.07169e-005 -4.64205e-006 -0.846265 -1.88544 -19.8027 0.397992 5.5471e-006 -2.11285e-006 -0.301288 19.7426 72.1999 -23.4715 -8.13649 25.2327 3.48774 
50.0577 87.1047 30.4507 1.13574 1.89628 -4.10438 1.30515 -1.99392 1.15999 2.62787 0.0392311 2.19554 2.60248 1.68281 2.15218 -14.4175 9.66377 0.0803844 12.0746 11.4362 -4.02193 51.4819 -7.20629 -4.16302 118.753 42.3907 -16.3259 1.3918e-006 4.07791e-007 -4.43267e-006 25.2875 1.40466 1.24886 1.46028e-005 7.02981e-006 -3.00888 8.0301 -4.9514 0.697719 -75.1906 -7.70294 5.23703 -102.411 44.7185 -1.57354 -1.72063e-006 2.28825e-007 3.51245e-006 -27.2252 0.191577 -0.865153 2.17448e-006 8.25562e-006 3.03829 -8.03035 -4.95137 -0.697722 174.305 16.892 0.687521 180 7.01601e-015 179.19 176.393 18.9023 180 -2.95271e-007 -4.48079e-006 0.205952 -16.4991 67.6064 19.2211 8.13649 25.2327 -3.48773 -177.401 12.7717 0.108313 -1.07169e-005 -4.64205e-006 -0.846265 -1.88566 -19.8032 0.397877 5.5471e-006 -2.11285e-006 -0.301288 19.7376 72.1985 -23.4667 -8.13649 25.2327 3.48774 
50.0554 87.0915 30.4404 1.13741 1.90142 -4.10056 1.30511 -1.99497 1.16017 2.62876 0.0371299 2.19593 2.60337 1.68071 2.15256 -14.4148 9.69268 0.0819089 12.0714 11.4306 -4.02247 51.4907 -7.20915 -4.16544 118.682 42.3164 -16.2394 1.3918e-006 4.07791e-007 -4.43267e-006 25.2879 1.38996 1.25228 1.46028e-005 7.02981e-006 -3.00888 8.0301 -4.9514 0.697719 -75.1928 -7.70094 5.2362 -102.382 44.6653 -1.64133 -1.72063e-006 2.28825e-007 3.51245e-006 -27.2068 0.191608 -0.852857 2.17448e-006 8.25563e-006 3.03863 -8.03035 -4.95137 -0.697722 174.3 16.8997 0.694473 180 7.01601e-015 179.19 176.388 18.905 -179.999 -2.95271e-007 -4.48079e-006 0.205952 -16.5025 67.6061 19.2209 8.13649 25.2327 -3.48773 -177.403 12.7795 0.110155 -1.07169e-005 -4.64205e-006 -0.846265 -1.88603 -19.8041 0.397698 5.5471e-006 -2.11285e-006 -0.301288 19.7329 72.1974 -23.462 -8.13649 25.2327 3.48774 
50.0536 87.0864 30.4404 1.13911 1.90667 -4.09668 1.30505 -1.99612 1.16042 2.62967 0.0348572 2.19645 2.60427 1.67844 2.15305 -14.4119 9.72245 0.0833391 12.068 11.4243 -4.02307 51.5 -7.21206 -4.16792 118.61 42.2416 -16.1524 1.3918e-006 4.07791e-007 -4.43267e-006 25.2885 1.37524 1.25571 1.46028e-005 7.02981e-006 -3.00888 8.0301 -4.9514 0.697719 -75.1951 -7.69871 5.23527 -102.353 44.6118 -1.70924 -1.72063e-006 2.28825e-007 3.51245e-006 -27.1884 0.19164 -0.840407 2.17448e-006 8.25563e-006 3.03897 -8.03035 -4.95137 -0.697722 174.295 16.9077 0.701436 180 7.01601e-015 179.19 176.383 18.9079 -179.998 -2.95271e-007 -4.48079e-006 0.205952 -16.5058 67.6057 19.2207 8.13649 25.2327 -3.48773 -177.405 12.7874 0.111964 -1.07169e-005 -4.64205e-006 -0.846265 -1.88652 -19.8053 0.397475 5.5471e-006 -2.11285e-006 -0.301288 19.7285 72.1966 -23.4574 -8.13649 25.2327 3.48774 
50.047 87.0886 30.4528 1.14082 1.912 -4.09276 1.30499 -1.99731 1.1607 2.63058 0.0324866 2.19703 2.60517 1.67606 2.15362 -14.4089 9.75271 0.0847156 12.0645 11.4176 -4.0237 51.5095 -7.215 -4.17042 118.538 42.1664 -16.0652 1.3918e-006 4.07791e-007 -4.43267e-006 25.2891 1.36051 1.25916 1.46028e-005 7.02981e-006 -3.00888 8.0301 -4.9514 0.697719 -75.1973 -7.69634 5.23427 -102.325 44.5581 -1.77716 -1.72063e-006 2.28825e-007 3.51245e-006 -27.1701 0.191671 -0.82787 2.17448e-006 8.25563e-006 3.0393 -8.03035 -4.95137 -0.697722 174.291 16.9158 0.708406 180 7.01601e-015 179.19 176.378 18.9109 -179.997 -2.95271e-007 -4.48079e-006 0.205952 -16.5091 67.6052 19.2205 8.13649 25.2327 -3.48773 -177.406 12.7955 0.113755 -1.07169e-005 -4.64205e-006 -0.846265 -1.88706 -19.8068 0.397227 5.5471e-006 -2.11285e-006 -0.301288 19.7242 72.1958 -23.4529 -8.13649 25.2327 3.48774 
50.0464 87.08 30.4471 1.14253 1.91734 -4.08884 1.30493 -1.99852 1.16099 2.63149 0.0300916 2.19763 2.60608 1.67367 2.15421 -14.4058 9.78309 0.0860787 12.061 11.4108 -4.02434 51.5191 -7.21794 -4.17294 118.465 42.0911 -15.9781 1.3918e-006 4.07791e-007 -4.43267e-006 25.2897 1.34578 1.26261 1.46028e-005 7.02981e-006 -3.00888 8.0301 -4.9514 0.697719 -75.1996 -7.69393 5.23326 -102.297 44.5043 -1.84499 -1.72063e-006 2.28825e-007 3.51245e-006 -27.1517 0.191703 -0.815311 2.17448e-006 8.25563e-006 3.03963 -8.03035 -4.95137 -0.697722 174.286 16.9239 0.715379 180 7.01601e-015 179.19 176.373 18.914 -179.996 -2.95271e-007 -4.48079e-006 0.205952 -16.5124 67.6048 19.2203 8.13649 25.2327 -3.48773 -177.408 12.8036 0.115541 -1.07169e-005 -4.64205e-006 -0.846265 -1.88762 -19.8082 0.396973 5.5471e-006 -2.11285e-006 -0.301288 19.7199 72.1951 -23.4484 -8.13649 25.2327 3.48774 
50.048 87.0934 30.4476 1.14423 1.92265 -4.08493 1.30487 -1.9997 1.16126 2.6324 0.0277454 2.1982 2.60698 1.67132 2.15476 -14.4028 9.81323 0.0874692 12.0575 11.4042 -4.02496 51.5285 -7.22087 -4.17544 118.394 42.0158 -15.8914 1.3918e-006 4.07791e-007 -4.43267e-006 25.2903 1.33105 1.26606 1.46028e-005 7.02981e-006 -3.00888 8.0301 -4.9514 0.697719 -75.2018 -7.69159 5.23229 -102.269 44.4506 -1.91264 -1.72063e-006 2.28825e-007 3.51245e-006 -27.1333 0.191734 -0.802795 2.17448e-006 8.25563e-006 3.03996 -8.03035 -4.95137 -0.697722 174.281 16.9319 0.722348 180 7.01601e-015 179.19 176.368 18.917 -179.995 -2.95271e-007 -4.48079e-006 0.205952 -16.5157 67.6044 19.2201 8.13649 25.2327 -3.48773 -177.41 12.8117 0.117336 -1.07169e-005 -4.64205e-006 -0.846265 -1.88815 -19.8096 0.396731 5.5471e-006 -2.11285e-006 -0.301288 19.7156 72.1943 -23.4438 -8.13649 25.2327 3.48774 
50.0459 87.0887 30.448 1.14592 1.92787 -4.08107 1.30482 -2.00082 1.16149 2.63331 0.0255218 2.19868 2.60788 1.6691 2.15522 -14.4 9.84275 0.0889276 12.0541 11.3981 -4.02554 51.5377 -7.22377 -4.1779 118.323 41.9407 -15.8056 1.3918e-006 4.07791e-007 -4.43267e-006 25.2909 1.31634 1.26949 1.46028e-005 7.02981e-006 -3.00888 8.0301 -4.9514 0.697719 -75.2041 -7.68942 5.23138 -102.241 44.397 -1.97998 -1.72063e-006 2.28825e-007 3.51245e-006 -27.1149 0.191766 -0.790389 2.17448e-006 8.25563e-006 3.0403 -8.03035 -4.95137 -0.697722 174.276 16.9398 0.729311 180 7.01601e-015 179.19 176.362 18.9198 -179.993 -2.95271e-007 -4.48079e-006 0.205952 -16.519 67.604 19.2199 8.13649 25.2327 -3.48773 -177.411 12.8196 0.119156 -1.07169e-005 -4.64205e-006 -0.846265 -1.8886 -19.8108 0.396521 5.5471e-006 -2.11285e-006 -0.301288 19.7111 72.1934 -23.4392 -8.13649 25.2327 3.48774 
50.0486 87.0868 30.4322 1.14758 1.93295 -4.07727 1.30478 -2.00184 1.16165 2.6342 0.023494 2.19901 2.60876 1.66707 2.15554 -14.3974 9.8713 0.0904944 12.051 11.3928 -4.02606 51.5464 -7.2266 -4.1803 118.254 41.866 -15.7208 1.3918e-006 4.07791e-007 -4.43267e-006 25.2914 1.30166 1.2729 1.46028e-005 7.02981e-006 -3.00888 8.0301 -4.9514 0.697719 -75.2063 -7.68752 5.2306 -102.214 44.3437 -2.04693 -1.72063e-006 2.28825e-007 3.51245e-006 -27.0965 0.191798 -0.778158 2.17448e-006 8.25563e-006 3.04064 -8.03035 -4.95137 -0.697722 174.272 16.9474 0.736261 180 7.01601e-015 179.19 176.357 18.9224 -179.992 -2.95271e-007 -4.48079e-006 0.205952 -16.5224 67.6036 19.2197 8.13649 25.2327 -3.48773 -177.413 12.8272 0.121013 -1.07169e-005 -4.64205e-006 -0.846265 -1.88893 -19.8116 0.396361 5.5471e-006 -2.11285e-006 -0.301288 19.7063 72.1922 -23.4345 -8.13649 25.2327 3.48774 
50.0463 87.0876 30.4355 1.14921 1.93785 -4.07358 1.30476 -2.00272 1.16172 2.63508 0.0217356 2.19915 2.60964 1.66531 2.15567 -14.3953 9.89849 0.0922102 12.0482 11.3885 -4.02648 51.5545 -7.22935 -4.18261 118.188 41.792 -15.6373 1.3918e-006 4.07791e-007 -4.43267e-006 25.2917 1.287 1.27627 1.46028e-005 7.02981e-006 -3.00888 8.0301 -4.9514 0.697719 -75.2085 -7.68599 5.22998 -102.186 44.2908 -2.11337 -1.72063e-006 2.28825e-007 3.51245e-006 -27.078 0.191829 -0.766168 2.17448e-006 8.25563e-006 3.04098 -8.03035 -4.95137 -0.697722 174.267 16.9546 0.743195 180 7.01601e-015 179.19 176.352 18.9247 -179.991 -2.95271e-007 -4.48079e-006 0.205952 -16.5258 67.6033 19.2195 8.13649 25.2327 -3.48773 -177.414 12.8344 0.122921 -1.07169e-005 -4.64205e-006 -0.846265 -1.88909 -19.8118 0.396271 5.5471e-006 -2.11285e-006 -0.301288 19.7011 72.1907 -23.4295 -8.13649 25.2327 3.48774 
50.0446 87.0885 30.4395 1.15079 1.9425 -4.07 1.30475 -2.00343 1.16166 2.63594 0.02032 2.19905 2.6105 1.66389 2.15554 -14.3935 9.92398 0.0941157 12.0457 11.3856 -4.02679 51.5617 -7.23199 -4.18482 118.123 41.7188 -15.5556 1.3918e-006 4.07791e-007 -4.43267e-006 25.2919 1.2724 1.27961 1.46028e-005 7.02981e-006 -3.00888 8.0301 -4.9514 0.697719 -75.2106 -7.68493 5.22956 -102.159 44.2384 -2.17921 -1.72063e-006 2.28825e-007 3.51245e-006 -27.0595 0.191861 -0.754485 2.17448e-006 8.25563e-006 3.04134 -8.03035 -4.95137 -0.697722 174.263 16.9614 0.750107 180 7.01601e-015 179.19 176.347 18.9266 -179.99 -2.95271e-007 -4.48079e-006 0.205952 -16.5293 67.603 19.2192 8.13649 25.2327 -3.48773 -177.415 12.8412 0.124896 -1.07169e-005 -4.64205e-006 -0.846265 -1.88904 -19.8114 0.396269 5.5471e-006 -2.11285e-006 -0.301288 19.6954 72.1888 -23.4244 -8.13649 25.2327 3.48774 
